<?xml version="1.0" encoding="UTF-8" standalone="no"?>
<svg
   xmlns:dc="http://purl.org/dc/elements/1.1/"
   xmlns:cc="http://creativecommons.org/ns#"
   xmlns:rdf="http://www.w3.org/1999/02/22-rdf-syntax-ns#"
   xmlns:svg="http://www.w3.org/2000/svg"
   xmlns="http://www.w3.org/2000/svg"
   xmlns:xlink="http://www.w3.org/1999/xlink"
   xmlns:sodipodi="http://sodipodi.sourceforge.net/DTD/sodipodi-0.dtd"
   xmlns:inkscape="http://www.inkscape.org/namespaces/inkscape"
   viewBox="0 0 500 500"
   width="100%"
   id="blobSvg"
   version="1.1"
   sodipodi:docname="heroShape.svg"
   inkscape:version="0.92.1 r15371">
  <metadata
     id="metadata3691">
    <rdf:RDF>
      <cc:Work
         rdf:about="">
        <dc:format>image/svg+xml</dc:format>
        <dc:type
           rdf:resource="http://purl.org/dc/dcmitype/StillImage" />
      </cc:Work>
    </rdf:RDF>
  </metadata>
  <sodipodi:namedview
     pagecolor="#ffffff"
     bordercolor="#666666"
     borderopacity="1"
     objecttolerance="10"
     gridtolerance="10"
     guidetolerance="10"
     inkscape:pageopacity="0"
     inkscape:pageshadow="2"
     inkscape:window-width="1920"
     inkscape:window-height="1013"
     id="namedview3689"
     showgrid="false"
     inkscape:zoom="1.64"
     inkscape:cx="250"
     inkscape:cy="227.34322"
     inkscape:window-x="-9"
     inkscape:window-y="-9"
     inkscape:window-maximized="1"
     inkscape:current-layer="blobSvg" />
  <defs
     id="defs3685">
    <linearGradient
       inkscape:collect="always"
       id="linearGradient3705">
      <stop
         style="stop-color:#000000;stop-opacity:1;"
         offset="0"
         id="stop3701" />
      <stop
         style="stop-color:#000000;stop-opacity:0;"
         offset="1"
         id="stop3703" />
    </linearGradient>
    <linearGradient
       id="gradient"
       x1="141.46341"
       y1="78.048782"
       x2="208.53659"
       y2="506.70731"
       gradientUnits="userSpaceOnUse">
      <stop
         offset="0%"
         style="stop-color:#666666;stop-opacity:1"
         id="stop3680" />
      <stop
         offset="100%"
         style="stop-color:#000000;stop-opacity:1"
         id="stop3682" />
    </linearGradient>
    <linearGradient
       inkscape:collect="always"
       xlink:href="#linearGradient3705"
       id="linearGradient3707"
       x1="-104.87805"
       y1="93.292686"
       x2="-87.195122"
       y2="127.43903"
       gradientUnits="userSpaceOnUse" />
  </defs>
  <path
     id="blob"
     d="M431.5,285.5Q433,321,408.5,346.5Q384,372,363.5,404Q343,436,305.5,441Q268,446,226,465Q184,484,145,462.5Q106,441,75.5,409Q45,377,56.5,330.5Q68,284,69,250Q70,216,66,175Q62,134,100,118Q138,102,163,66.5Q188,31,229,33Q270,35,304.5,53Q339,71,366,95Q393,119,417.5,147.5Q442,176,436,213Q430,250,431.5,285.5Z"
     fill="url(#gradient)"
     style="fill-opacity:1;fill:url(#gradient);stroke:url(#linearGradient3707);stroke-opacity:1" />
</svg>
