<?xml version="1.0" encoding="UTF-8" standalone="no"?>
<svg
   xmlns:dc="http://purl.org/dc/elements/1.1/"
   xmlns:cc="http://creativecommons.org/ns#"
   xmlns:rdf="http://www.w3.org/1999/02/22-rdf-syntax-ns#"
   xmlns:svg="http://www.w3.org/2000/svg"
   xmlns="http://www.w3.org/2000/svg"
   xmlns:xlink="http://www.w3.org/1999/xlink"
   xmlns:sodipodi="http://sodipodi.sourceforge.net/DTD/sodipodi-0.dtd"
   xmlns:inkscape="http://www.inkscape.org/namespaces/inkscape"
   viewBox="0 0 500 500"
   width="100%"
   id="blobSvg"
   version="1.1"
   sodipodi:docname="herobgpattren.svg"
   inkscape:version="0.92.1 r15371">
  <metadata
     id="metadata3718">
    <rdf:RDF>
      <cc:Work
         rdf:about="">
        <dc:format>image/svg+xml</dc:format>
        <dc:type
           rdf:resource="http://purl.org/dc/dcmitype/StillImage" />
      </cc:Work>
    </rdf:RDF>
  </metadata>
  <sodipodi:namedview
     pagecolor="#ffffff"
     bordercolor="#666666"
     borderopacity="1"
     objecttolerance="10"
     gridtolerance="10"
     guidetolerance="10"
     inkscape:pageopacity="0"
     inkscape:pageshadow="2"
     inkscape:window-width="1920"
     inkscape:window-height="1013"
     id="namedview3716"
     showgrid="false"
     inkscape:zoom="1.3350176"
     inkscape:cx="250"
     inkscape:cy="298.83197"
     inkscape:window-x="-9"
     inkscape:window-y="-9"
     inkscape:window-maximized="1"
     inkscape:current-layer="blobSvg" />
  <defs
     id="defs3712">
    <linearGradient
       inkscape:collect="always"
       id="linearGradient3724">
      <stop
         style="stop-color:#1a1a1a;stop-opacity:1"
         offset="0"
         id="stop3720" />
      <stop
         style="stop-color:#ffffff;stop-opacity:1"
         offset="1"
         id="stop3722" />
    </linearGradient>
    <pattern
       id="pattern"
       x="0"
       y="0"
       width="6"
       height="6"
       patternUnits="userSpaceOnUse"
       fill="#ee89a0">
      <path
         d="M5 0h1L0 6V5zM6 5v1H5z"
         id="path3709" />
    </pattern>
    <linearGradient
       inkscape:collect="always"
       xlink:href="#linearGradient3724"
       id="linearGradient3726"
       x1="397.74756"
       y1="67.795959"
       x2="113.10712"
       y2="785.38947"
       gradientUnits="userSpaceOnUse" />
  </defs>
  <path
     id="blob"
     d="M480,291.5Q477,333,444,359Q411,385,386.5,414.5Q362,444,323.5,446.5Q285,449,250,449.5Q215,450,170.5,457Q126,464,108,424.5Q90,385,62.5,356.5Q35,328,21,289Q7,250,22,211Q37,172,50,132.5Q63,93,104,80.5Q145,68,177,44Q209,20,250.5,14.5Q292,9,332,23.5Q372,38,391,77Q410,116,443.5,141.5Q477,167,480,208.5Q483,250,480,291.5Z"
     fill="url(#pattern)"
     style="fill:url(#linearGradient3726);fill-opacity:1" />
</svg>
